# File created by Blade
# Date/Time:  Wed Apr 08 17:12:12 2015
# Frame Rate: 120.000 fps
#------------------------------------------------------
:FULLY-SPECIFIED
:DEGREES
1535
root 5.814616 36.562193 3.014448 234.282240 -87.226452 -206.281911
Spine -26.283168 1.596095 -13.402037
Head 11.257977 7.146027 8.642443
LeftShoulder -9.558272 18.745261 23.560460
LeftArm 17.092864 -21.707443 -43.765038
LeftForeArm 21.669549 -0.000000 29.280793
LeftHand -11.145268 -0.000000 -14.598101
LeftHandThumb1 -26.253704 0.000000 33.147579
RightShoulder -31.847584 -47.601277 2.258235
RightArm 51.789908 25.474980 62.566710
RightForeArm 10.518765 -0.000000 10.616066
RightHand -1.659952 -0.000000 7.180939
RightHandThumb1 -24.326973 -0.000000 -32.862282
LeftUpLeg -29.819388 9.764042 -9.297869
LeftLeg 11.545529 -0.000000 -0.000000
LeftFoot -11.964356 11.151245 -14.976391
LeftToeBase 6.625669 -0.000000 -0.000000
RightUpLeg -30.551606 -9.824836 -9.693957
RightLeg 13.360433 -0.000000 -0.000000
RightFoot -4.623574 -7.930844 23.956833
RightToeBase 2.155885 -0.000000 -0.000000
1536
root 5.813418 36.551913 2.940472 236.615654 -87.056336 -208.585885
Spine -26.379396 1.486575 -13.469387
Head 11.361549 7.340615 8.410562
LeftShoulder -9.497951 18.626070 23.610680
LeftArm 17.047707 -22.334732 -43.321705
LeftForeArm 21.644241 -0.000000 28.916892
LeftHand -11.197577 -0.000000 -14.615962
LeftHandThumb1 -26.253704 0.000000 33.147579
RightShoulder -31.792315 -47.604326 1.981436
RightArm 51.890682 26.054720 62.373059
RightForeArm 10.470805 -0.000000 10.616767
RightHand -1.617839 -0.000000 7.235320
RightHandThumb1 -24.326973 -0.000000 -32.862282
LeftUpLeg -29.851059 9.718321 -9.354299
LeftLeg 11.574498 -0.000000 -0.000000
LeftFoot -11.982132 11.232981 -15.076336
LeftToeBase 6.617751 -0.000000 -0.000000
RightUpLeg -30.544398 -9.842745 -9.768640
RightLeg 13.298912 -0.000000 -0.000000
RightFoot -4.941354 -7.828843 23.987213
RightToeBase 2.226755 -0.000000 -0.000000
1537
root 5.813122 36.544454 2.862801 238.607913 -86.920783 -210.534335
Spine -26.490305 1.382297 -13.524269
Head 11.454554 7.480306 8.229800
LeftShoulder -9.420686 18.457195 23.699413
LeftArm 17.011231 -22.897258 -42.910340
LeftForeArm 21.633097 -0.000000 28.528509
LeftHand -11.170302 -0.000000 -14.659164
LeftHandThumb1 -26.253704 0.000000 33.147579
RightShoulder -31.701124 -47.535538 1.672176
RightArm 51.867966 26.597175 62.119986
RightForeArm 10.367090 -0.000000 10.629153
RightHand -1.596338 0.000000 7.287980
RightHandThumb1 -24.326973 -0.000000 -32.862282
LeftUpLeg -29.896239 9.649360 -9.370600
LeftLeg 11.595539 -0.000000 -0.000000
LeftFoot -11.995993 11.333972 -15.165147
LeftToeBase 6.616101 -0.000000 -0.000000
RightUpLeg -30.538472 -9.887375 -9.811060
RightLeg 13.235203 -0.000000 -0.000000
RightFoot -5.197385 -7.651375 23.938142
RightToeBase 2.686272 -0.000000 -0.000000
1538
root 5.813252 36.540707 2.782577 240.271268 -86.841065 -212.133827
Spine -26.616716 1.242195 -13.505664
Head 11.552499 7.684536 8.039163
LeftShoulder -9.367277 18.250575 23.792082
LeftArm 16.965973 -23.418948 -42.534608
LeftForeArm 21.612918 -0.000000 28.135104
LeftHand -11.158332 -0.000000 -14.651805
LeftHandThumb1 -26.253704 0.000000 33.147579
RightShoulder -31.643047 -47.516335 1.406923
RightArm 51.902724 27.150611 61.864053
RightForeArm 10.234482 0.000000 10.660177
RightHand -1.538453 -0.000000 7.548737
RightHandThumb1 -24.326973 -0.000000 -32.862282
LeftUpLeg -29.983349 9.605188 -9.351147
LeftLeg 11.646500 -0.000000 -0.000000
LeftFoot -11.988705 11.391438 -15.253658
LeftToeBase 6.626013 -0.000000 -0.000000
RightUpLeg -30.522024 -9.923984 -9.811944
RightLeg 13.131751 -0.000000 -0.000000
RightFoot -5.393110 -7.498385 23.917407
RightToeBase 2.978823 -0.000000 -0.000000
1539
root 5.812030 36.538962 2.701992 240.869677 -86.735585 -212.706513
Spine -26.723922 1.138369 -13.460945
Head 11.696118 7.920329 7.827598
LeftShoulder -9.328329 18.095673 23.859907
LeftArm 16.925659 -23.978463 -42.179538
LeftForeArm 21.638586 -0.000000 27.762722
LeftHand -11.148157 -0.000000 -14.636441
LeftHandThumb1 -26.253704 0.000000 33.147579
RightShoulder -31.498629 -47.472140 1.078739
RightArm 51.866728 27.613442 61.450154
RightForeArm 10.214440 -0.000000 10.636189
RightHand -1.511742 -0.000000 7.705405
RightHandThumb1 -24.326973 -0.000000 -32.862282
LeftUpLeg -30.021065 9.652138 -9.334932
LeftLeg 11.667261 -0.000000 -0.000000
LeftFoot -11.975553 11.438290 -15.325529
LeftToeBase 6.630308 -0.000000 -0.000000
RightUpLeg -30.474376 -9.866853 -9.830896
RightLeg 13.017248 -0.000000 -0.000000
RightFoot -5.546975 -7.324964 23.921498
RightToeBase 3.111851 -0.000000 -0.000000
1540
root 5.808799 36.538442 2.618409 241.432808 -86.679564 -213.252060
Spine -26.831814 1.045586 -13.382682
Head 11.849861 8.108194 7.632685
LeftShoulder -9.249844 17.917198 23.950390
LeftArm 16.889607 -24.452937 -41.822034
LeftForeArm 21.564246 -0.000000 27.358180
LeftHand -11.179218 -0.000000 -14.633783
LeftHandThumb1 -26.253704 0.000000 33.147579
RightShoulder -31.322643 -47.422363 0.707562
RightArm 51.781313 28.121228 61.146692
RightForeArm 9.969746 -0.000000 10.690261
RightHand -1.549703 -0.000000 7.707611
RightHandThumb1 -24.326973 -0.000000 -32.862282
LeftUpLeg -30.051974 9.676964 -9.268172
LeftLeg 11.697868 -0.000000 -0.000000
LeftFoot -11.956544 11.485040 -15.377768
LeftToeBase 6.618896 -0.000000 -0.000000
RightUpLeg -30.395547 -9.796000 -9.829691
RightLeg 12.898148 -0.000000 -0.000000
RightFoot -5.688567 -7.162861 23.899276
RightToeBase 3.400794 -0.000000 -0.000000
1541
root 5.806651 36.540039 2.535003 241.516228 -86.614193 -213.315501
Spine -26.933278 0.966534 -13.301360
Head 11.977243 8.351730 7.463621
LeftShoulder -9.203328 17.735687 24.046843
LeftArm 16.855507 -24.905501 -41.491783
LeftForeArm 21.542554 0.000000 26.999715
LeftHand -11.203200 -0.000000 -14.646209
LeftHandThumb1 -26.253704 0.000000 33.147579
RightShoulder -31.193849 -47.365775 0.411457
RightArm 51.728093 28.615227 60.759613
RightForeArm 9.752890 0.000000 10.702153
RightHand -1.518849 -0.000000 7.859496
RightHandThumb1 -24.326973 -0.000000 -32.862282
LeftUpLeg -30.082343 9.703666 -9.184018
LeftLeg 11.720547 -0.000000 -0.000000
LeftFoot -11.942153 11.543292 -15.465144
LeftToeBase 6.593754 -0.000000 -0.000000
RightUpLeg -30.313076 -9.636723 -9.850720
RightLeg 12.753781 -0.000000 -0.000000
RightFoot -5.825382 -7.045721 23.899406
RightToeBase 3.569028 -0.000000 -0.000000
